<?xml version="1.0" standalone="no"?>
<!DOCTYPE svg PUBLIC "-//W3C//DTD SVG 20010904//EN"
 "http://www.w3.org/TR/2001/REC-SVG-20010904/DTD/svg10.dtd">
<svg version="1.0" xmlns="http://www.w3.org/2000/svg"
 width="1277.000000pt" height="721.000000pt" viewBox="0 0 1277.000000 721.000000"
 preserveAspectRatio="xMidYMid meet">

<g transform="translate(0.000000,721.000000) scale(0.100000,-0.100000)"
fill="#000000" stroke="none">
<path d="M10002 5190 c0 -19 2 -27 5 -17 2 9 2 25 0 35 -3 9 -5 1 -5 -18z"/>
<path d="M8881 5010 l-33 -28 33 -41 c18 -23 35 -41 38 -41 3 1 23 15 43 33
l37 32 -42 36 -42 36 -34 -27z"/>
<path d="M4037 4945 c-4 -8 -2 -17 4 -21 11 -6 39 13 39 27 0 15 -37 10 -43
-6z"/>
<path d="M406 4933 c-3 -4 -6 -18 -6 -32 0 -14 -9 -45 -20 -68 l-19 -42 56
-26 c31 -14 58 -23 61 -20 8 8 52 119 52 132 0 11 -25 25 -96 53 -12 5 -25 6
-28 3z"/>
<path d="M8380 4920 c0 -5 4 -10 9 -10 6 0 13 5 16 10 3 6 -1 10 -9 10 -9 0
-16 -4 -16 -10z"/>
<path d="M890 4851 c0 -11 39 -25 47 -18 3 3 2 10 -2 16 -8 13 -45 15 -45 2z"/>
<path d="M2707 4833 c-10 -9 -9 -23 1 -23 5 0 17 7 28 15 19 14 19 14 -2 15
-11 0 -24 -3 -27 -7z"/>
<path d="M10040 4726 c-12 -30 -19 -59 -16 -65 4 -5 21 -13 39 -16 17 -4 44
-13 58 -21 25 -12 26 -12 45 39 10 28 21 55 22 59 2 4 -3 8 -10 8 -8 0 -37 11
-64 25 -27 14 -50 25 -50 25 -1 0 -12 -24 -24 -54z"/>
<path d="M8170 4635 c0 -21 5 -25 30 -25 25 0 30 4 30 25 0 21 -5 25 -30 25
-25 0 -30 -4 -30 -25z"/>
<path d="M2395 4558 c-53 -27 -51 -25 -28 -51 11 -12 29 -38 38 -57 10 -19 19
-36 20 -38 2 -2 75 29 103 44 2 1 -11 29 -27 63 -35 68 -44 71 -106 39z"/>
<path d="M8850 4512 c0 -38 14 -49 55 -44 32 4 35 7 35 38 0 34 -1 34 -45 34
-43 0 -45 -1 -45 -28z"/>
<path d="M9773 4375 c-3 -9 -3 -18 0 -21 9 -9 27 6 27 22 0 19 -19 18 -27 -1z"/>
<path d="M3106 4361 c-10 -15 22 -20 34 -5 10 11 9 14 -8 14 -12 0 -23 -4 -26
-9z"/>
<path d="M1796 4347 c-16 -12 -16 -14 -3 -26 23 -18 64 4 46 25 -14 17 -20 18
-43 1z"/>
<path d="M796 4206 c7 -19 48 -22 42 -3 -3 6 -14 13 -26 15 -16 3 -20 -1 -16
-12z"/>
<path d="M1250 4180 l-25 -19 20 -40 20 -40 27 22 28 22 -18 37 c-9 21 -19 37
-22 37 -3 1 -16 -8 -30 -19z"/>
<path d="M1386 4101 c-4 -5 -2 -12 3 -15 5 -4 12 -2 15 3 4 5 2 12 -3 15 -5 4
-12 2 -15 -3z"/>
<path d="M1787 4063 c-4 -3 -7 -11 -7 -17 0 -6 5 -5 12 2 6 6 9 14 7 17 -3 3
-9 2 -12 -2z"/>
<path d="M10260 4050 c0 -11 4 -20 9 -20 11 0 22 26 14 34 -12 12 -23 5 -23
-14z"/>
<path d="M9135 3969 c-11 -16 27 -40 43 -27 9 8 9 14 1 24 -14 17 -35 18 -44
3z"/>
<path d="M1625 3940 c-9 -15 14 -50 34 -50 26 0 31 9 19 36 -11 24 -42 32 -53
14z"/>
<path d="M3136 3941 c-4 -7 -5 -15 -2 -18 9 -9 19 4 14 18 -4 11 -6 11 -12 0z"/>
<path d="M1367 3829 c-17 -41 -14 -45 39 -54 37 -6 41 -4 52 20 17 36 15 42
-10 48 -13 3 -33 8 -45 12 -18 6 -24 1 -36 -26z"/>
<path d="M3560 3770 c-8 -5 -11 -12 -7 -16 4 -4 13 -2 19 4 15 15 7 24 -12 12z"/>
<path d="M9966 3722 c-2 -4 2 -21 9 -38 11 -27 17 -30 43 -26 29 4 29 5 19 38
-9 28 -15 34 -38 34 -15 0 -30 -3 -33 -8z"/>
<path d="M3024 3633 c-17 -23 -23 -38 -16 -41 6 -2 28 -15 48 -28 20 -14 37
-24 38 -22 2 2 13 18 25 36 13 18 22 34 20 36 -51 38 -77 56 -81 56 -3 0 -18
-17 -34 -37z"/>
<path d="M1460 3635 c0 -8 5 -15 10 -15 6 0 10 7 10 15 0 8 -4 15 -10 15 -5 0
-10 -7 -10 -15z"/>
<path d="M1860 3404 c0 -8 5 -12 10 -9 6 4 8 11 5 16 -9 14 -15 11 -15 -7z"/>
<path d="M4716 3383 c-3 -4 -6 -21 -6 -40 0 -27 5 -35 26 -43 35 -14 34 -15
34 28 0 31 -5 41 -24 50 -13 6 -27 8 -30 5z"/>
<path d="M7250 3206 c0 -2 7 -6 15 -10 8 -3 15 -1 15 4 0 6 -7 10 -15 10 -8 0
-15 -2 -15 -4z"/>
<path d="M1596 3192 c-2 -4 -7 -23 -11 -42 -6 -33 -4 -36 27 -46 18 -6 41 -14
50 -18 13 -6 19 0 27 31 16 57 15 60 -33 72 -53 13 -54 13 -60 3z"/>
<path d="M6595 3138 c-16 -6 -31 -12 -33 -13 -5 -4 21 -55 28 -55 23 0 70 24
65 34 -3 6 -8 19 -11 29 -7 19 -8 19 -49 5z"/>
<path d="M6960 3121 c-8 -15 -5 -22 14 -35 22 -14 25 -14 30 0 9 24 8 28 -14
41 -16 11 -21 10 -30 -6z"/>
<path d="M7632 2943 l3 -48 44 -3 44 -3 -7 32 c-3 17 -6 40 -6 50 0 16 -8 19
-41 19 l-40 0 3 -47z"/>
<path d="M5903 2875 c-3 -9 -3 -18 0 -21 9 -9 27 6 27 22 0 19 -19 18 -27 -1z"/>
<path d="M7390 2800 c0 -5 5 -10 10 -10 6 0 10 5 10 10 0 6 -4 10 -10 10 -5 0
-10 -4 -10 -10z"/>
<path d="M8143 2770 c-39 -20 -108 -45 -152 -54 -45 -10 -83 -21 -86 -26 -5
-8 79 -231 105 -280 16 -30 44 -23 153 38 48 27 109 55 135 62 26 7 48 14 50
16 2 1 -7 22 -19 46 -12 23 -39 86 -59 138 -21 52 -41 95 -46 96 -5 1 -41 -15
-81 -36z"/>
<path d="M6486 2704 c-18 -18 -18 -19 -2 -22 22 -5 29 2 24 24 -3 16 -4 16
-22 -2z"/>
<path d="M10907 2704 c-12 -12 4 -24 30 -24 21 0 24 2 13 15 -13 16 -32 20
-43 9z"/>
<path d="M85 2619 c-10 -29 25 -55 42 -32 14 18 10 29 -17 43 -15 8 -20 6 -25
-11z"/>
<path d="M4633 2615 c-3 -9 -3 -18 0 -21 9 -9 27 6 27 22 0 19 -19 18 -27 -1z"/>
<path d="M5692 2600 c-9 -25 -8 -31 8 -40 10 -5 23 -10 28 -10 8 0 36 50 30
55 -7 5 -47 25 -51 25 -3 0 -10 -13 -15 -30z"/>
<path d="M12167 2593 c-13 -12 -7 -41 9 -47 30 -12 44 -6 44 18 0 28 -35 47
-53 29z"/>
<path d="M4216 2543 c-32 -30 -37 -39 -27 -52 6 -9 19 -29 29 -44 40 -67 37
-66 81 -22 23 21 41 44 41 50 -1 5 -20 31 -43 57 l-42 47 -39 -36z"/>
<path d="M11391 2519 c-23 -10 -41 -22 -39 -26 2 -5 10 -25 18 -45 8 -21 20
-38 27 -38 9 0 56 17 71 26 5 3 -20 94 -27 98 -4 3 -26 -4 -50 -15z"/>
<path d="M5793 2468 l-32 -53 51 -23 c28 -12 57 -27 64 -33 10 -8 20 0 44 37
16 26 30 50 30 53 0 6 -97 64 -115 69 -5 1 -24 -21 -42 -50z"/>
<path d="M5315 2489 c-10 -15 1 -23 20 -15 9 3 13 10 10 16 -8 13 -22 13 -30
-1z"/>
<path d="M752 2413 l3 -48 44 -3 44 -3 -7 32 c-3 17 -6 40 -6 50 0 16 -8 19
-41 19 l-40 0 3 -47z"/>
<path d="M10104 2436 c-29 -13 -31 -17 -25 -46 3 -17 8 -32 11 -32 3 -1 22 4
43 11 32 11 38 17 33 35 -3 11 -6 27 -6 34 0 15 -17 15 -56 -2z"/>
<path d="M11260 2418 c0 -2 -11 -34 -24 -73 -14 -38 -24 -70 -23 -71 1 0 30
-10 65 -22 58 -19 64 -19 69 -4 3 9 16 41 30 70 14 29 23 54 22 56 -29 18
-138 52 -139 44z"/>
<path d="M11890 2350 c0 -5 7 -10 15 -10 8 0 15 5 15 10 0 6 -7 10 -15 10 -8
0 -15 -4 -15 -10z"/>
<path d="M12667 2261 l-25 -38 33 -16 c34 -16 34 -16 55 12 26 38 25 43 -9 63
l-30 16 -24 -37z"/>
<path d="M515 2280 c-3 -5 1 -10 10 -10 9 0 13 5 10 10 -3 6 -8 10 -10 10 -2
0 -7 -4 -10 -10z"/>
<path d="M2295 2256 c-3 -9 -7 -22 -9 -30 -3 -10 5 -17 26 -21 33 -8 42 -2 53
33 5 18 2 22 -14 22 -10 0 -26 3 -35 6 -10 4 -18 0 -21 -10z"/>
<path d="M2448 2132 c-33 -20 -39 -62 -9 -62 11 0 26 -3 35 -6 13 -5 16 2 16
40 0 51 -3 53 -42 28z"/>
<path d="M10522 2104 c9 -10 24 -14 33 -10 23 9 9 26 -23 26 -24 0 -25 -1 -10
-16z"/>
<path d="M5055 2009 c-16 -10 -34 -20 -39 -22 -4 -1 3 -20 18 -41 14 -21 26
-45 26 -52 0 -8 4 -14 9 -14 11 0 101 50 101 57 0 12 -65 93 -74 92 -6 0 -24
-9 -41 -20z"/>
<path d="M5489 2014 c-12 -14 -11 -16 5 -13 11 2 21 10 24 17 5 17 -13 15 -29
-4z"/>
<path d="M2490 1876 c0 -8 7 -16 15 -20 9 -3 15 0 15 8 0 8 -7 16 -15 20 -9 3
-15 0 -15 -8z"/>
<path d="M3067 1780 l-38 -39 32 -41 c31 -38 49 -50 49 -32 0 5 21 23 46 42
l46 32 -38 39 c-21 22 -43 39 -49 39 -5 -1 -27 -18 -48 -40z"/>
<path d="M9494 1765 c-4 -18 2 -35 25 -66 l30 -42 11 27 c16 43 12 61 -20 84
-37 28 -38 27 -46 -3z"/>
<path d="M12234 1586 c-7 -20 2 -46 16 -46 13 0 13 47 0 55 -6 3 -13 -1 -16
-9z"/>
<path d="M8076 1513 c-2 -10 -7 -28 -11 -39 -4 -17 2 -26 28 -43 45 -27 47
-27 47 12 -1 19 -10 43 -25 60 -28 32 -32 33 -39 10z"/>
<path d="M9180 1396 c0 -7 9 -16 20 -19 15 -4 20 0 20 14 0 12 -7 19 -20 19
-11 0 -20 -6 -20 -14z"/>
<path d="M8353 1383 c-7 -2 -13 -21 -13 -40 0 -28 3 -34 16 -29 9 3 29 6 45 6
27 0 29 3 29 35 0 33 -2 35 -32 34 -18 0 -39 -3 -45 -6z"/>
<path d="M2447 1353 c-12 -11 -7 -33 7 -33 7 0 16 9 19 20 5 19 -12 28 -26 13z"/>
<path d="M4215 1311 c-6 -5 -27 -14 -48 -21 l-37 -12 22 -39 c12 -21 25 -39
30 -39 4 0 28 10 52 22 l45 21 -22 39 c-23 40 -27 43 -42 29z"/>
<path d="M4993 1253 c-27 -5 -27 -4 -8 -49 13 -32 18 -35 42 -29 36 9 36 7 25
46 -8 34 -19 40 -59 32z"/>
<path d="M1932 1131 l-42 -50 43 -30 c24 -16 49 -36 56 -45 8 -9 17 -16 20
-16 9 0 91 100 91 110 0 6 -79 57 -120 77 -3 2 -24 -19 -48 -46z"/>
<path d="M12414 1167 c-3 -8 -1 -42 4 -78 6 -48 12 -63 22 -60 8 2 43 6 78 8
62 6 62 6 62 37 0 17 -3 48 -6 69 l-7 37 -74 0 c-52 0 -75 -4 -79 -13z"/>
<path d="M9386 1008 c-21 -28 -40 -57 -42 -62 -3 -10 81 -71 97 -71 3 0 29 25
57 56 l51 56 -49 36 c-27 20 -55 37 -62 37 -7 0 -30 -23 -52 -52z"/>
<path d="M4700 1041 c0 -6 5 -13 10 -16 6 -3 10 1 10 9 0 9 -4 16 -10 16 -5 0
-10 -4 -10 -9z"/>
<path d="M3382 1015 c-43 -9 -43 -9 -37 -45 4 -19 8 -36 10 -38 2 -2 23 0 47
5 40 8 43 11 40 38 -6 47 -12 51 -60 40z"/>
<path d="M8662 973 c4 -22 38 -30 38 -10 0 8 -7 18 -16 21 -23 9 -26 8 -22
-11z"/>
<path d="M4220 935 c0 -8 7 -15 16 -15 14 0 14 3 4 15 -7 8 -14 15 -16 15 -2
0 -4 -7 -4 -15z"/>
<path d="M9582 670 c-23 -32 -42 -63 -42 -68 0 -6 11 -13 25 -16 14 -4 47 -20
74 -36 26 -17 55 -30 63 -30 8 0 23 18 33 39 10 22 28 50 41 62 l24 22 -77 43
c-43 24 -83 44 -89 44 -5 0 -29 -27 -52 -60z"/>
<path d="M5908 656 c-19 -51 -17 -53 49 -78 l41 -16 17 45 c9 24 16 45 14 46
-34 18 -95 47 -99 47 -3 0 -13 -20 -22 -44z"/>
<path d="M3195 571 c-3 -5 -1 -12 5 -16 5 -3 10 1 10 9 0 18 -6 21 -15 7z"/>
<path d="M3316 304 c-7 -19 1 -34 19 -34 15 0 28 27 19 41 -9 14 -31 10 -38
-7z"/>
</g>
</svg>
